<?xml version="1.0" encoding="UTF-8" standalone="no"?><svg xmlns="http://www.w3.org/2000/svg" xmlns:xlink= "http://www.w3.org/1999/xlink" width="600" height="390" aria-label="A chart." style="overflow: hidden;"><defs id="_ABSTRACT_RENDERER_ID_112"><clipPath id="_ABSTRACT_RENDERER_ID_113"><rect x="115" y="75" width="371" height="241"></rect></clipPath></defs><rect x="0" y="0" width="600" height="390" stroke="none" stroke-width="0" fill="#ffffff"></rect><g><text text-anchor="start" x="115" y="52.05" font-family="Arial" font-size="13" font-weight="bold" stroke="none" stroke-width="0" fill="#000000">Accuracy</text><rect x="115" y="41" width="371" height="13" stroke="none" stroke-width="0" fill-opacity="0" fill="#ffffff"></rect></g><g><rect x="499" y="75" width="88" height="13" stroke="none" stroke-width="0" fill-opacity="0" fill="#ffffff"></rect><g><rect x="499" y="75" width="88" height="13" stroke="none" stroke-width="0" fill-opacity="0" fill="#ffffff"></rect><g><text text-anchor="start" x="530" y="86.05" font-family="Arial" font-size="13" stroke="none" stroke-width="0" fill="#222222">Bar1</text></g><rect x="499" y="75" width="26" height="13" stroke="none" stroke-width="0" fill="#3366cc"></rect></g></g><g><rect x="115" y="75" width="371" height="241" stroke="none" stroke-width="0" fill-opacity="0" fill="#ffffff"></rect><g clip-path="url(https://www.rapidtables.com/tools/bar-graph.html#_ABSTRACT_RENDERER_ID_113)"><g><rect x="115" y="315" width="371" height="1" stroke="none" stroke-width="0" fill="#cccccc"></rect><rect x="115" y="267" width="371" height="1" stroke="none" stroke-width="0" fill="#cccccc"></rect><rect x="115" y="219" width="371" height="1" stroke="none" stroke-width="0" fill="#cccccc"></rect><rect x="115" y="171" width="371" height="1" stroke="none" stroke-width="0" fill="#cccccc"></rect><rect x="115" y="123" width="371" height="1" stroke="none" stroke-width="0" fill="#cccccc"></rect><rect x="115" y="75" width="371" height="1" stroke="none" stroke-width="0" fill="#cccccc"></rect><rect x="115" y="291" width="371" height="1" stroke="none" stroke-width="0" fill="#ebebeb"></rect><rect x="115" y="243" width="371" height="1" stroke="none" stroke-width="0" fill="#ebebeb"></rect><rect x="115" y="195" width="371" height="1" stroke="none" stroke-width="0" fill="#ebebeb"></rect><rect x="115" y="147" width="371" height="1" stroke="none" stroke-width="0" fill="#ebebeb"></rect><rect x="115" y="99" width="371" height="1" stroke="none" stroke-width="0" fill="#ebebeb"></rect></g><g><rect x="126" y="116" width="32" height="199" stroke="none" stroke-width="0" fill="#3366cc"></rect><rect x="178" y="116" width="33" height="199" stroke="none" stroke-width="0" fill="#3366cc"></rect><rect x="231" y="116" width="33" height="199" stroke="none" stroke-width="0" fill="#3366cc"></rect><rect x="284" y="196" width="33" height="119" stroke="none" stroke-width="0" fill="#3366cc"></rect><rect x="337" y="156" width="33" height="159" stroke="none" stroke-width="0" fill="#3366cc"></rect><rect x="390" y="156" width="33" height="159" stroke="none" stroke-width="0" fill="#3366cc"></rect><rect x="443" y="156" width="32" height="159" stroke="none" stroke-width="0" fill="#3366cc"></rect></g><g><rect x="115" y="315" width="371" height="1" stroke="none" stroke-width="0" fill="#333333"></rect></g></g><g></g><g><g><text text-anchor="end" x="144.20357142857142" y="328.4404155872192" font-family="Arial" font-size="13" transform="rotate(-30 144.20357142857142 328.4404155872192)" stroke="none" stroke-width="0" fill="#222222">DecisionTre…</text><path d="M63.33436129932525,362.37083487540116L138.67857142857142,318.87083487540116L145.17857142857142,330.12916512459884L69.83436129932525,373.62916512459884Z" stroke="none" stroke-width="0" fill-opacity="0" fill="#ffffff"></path></g><g><text text-anchor="end" x="197.06071428571428" y="328.4404155872192" font-family="Arial" font-size="13" transform="rotate(-30 197.06071428571428 328.4404155872192)" stroke="none" stroke-width="0" fill="#222222">RandomFor…</text><path d="M116.1915041564681,362.3708348754011L191.53571428571428,318.87083487540116L198.03571428571428,330.12916512459884L122.6915041564681,373.6291651245988Z" stroke="none" stroke-width="0" fill-opacity="0" fill="#ffffff"></path></g><g><text text-anchor="end" x="249.91785714285714" y="328.4404155872192" font-family="Arial" font-size="13" transform="rotate(-30 249.91785714285714 328.4404155872192)" stroke="none" stroke-width="0" fill="#222222">GradientBoo…</text><path d="M169.04864701361097,362.37083487540116L244.39285714285714,318.87083487540116L250.89285714285714,330.12916512459884L175.54864701361097,373.62916512459884Z" stroke="none" stroke-width="0" fill-opacity="0" fill="#ffffff"></path></g><g><text text-anchor="end" x="302.775" y="328.4404155872192" font-family="Arial" font-size="13" transform="rotate(-30 302.775 328.4404155872192)" stroke="none" stroke-width="0" fill="#222222">LogisticRegr…</text><path d="M221.9057898707538,362.3708348754011L297.25,318.8708348754011L303.75,330.1291651245988L228.4057898707538,373.6291651245988Z" stroke="none" stroke-width="0" fill-opacity="0" fill="#ffffff"></path></g><g><text text-anchor="end" x="355.6321428571428" y="328.4404155872192" font-family="Arial" font-size="13" transform="rotate(-30 355.6321428571428 328.4404155872192)" stroke="none" stroke-width="0" fill="#222222">KNeighbors…</text><path d="M274.76293272789667,362.37083487540116L350.10714285714283,318.87083487540116L356.60714285714283,330.12916512459884L281.26293272789667,373.62916512459884Z" stroke="none" stroke-width="0" fill-opacity="0" fill="#ffffff"></path></g><g><text text-anchor="end" x="408.4892857142857" y="328.4404155872192" font-family="Arial" font-size="13" transform="rotate(-30 408.4892857142857 328.4404155872192)" stroke="none" stroke-width="0" fill="#222222">SVC</text></g><g><text text-anchor="end" x="461.34642857142853" y="328.4404155872192" font-family="Arial" font-size="13" transform="rotate(-30 461.34642857142853 328.4404155872192)" stroke="none" stroke-width="0" fill="#222222">GaussianNB</text></g><g><text text-anchor="end" x="102" y="320.05" font-family="Arial" font-size="13" stroke="none" stroke-width="0" fill="#444444">0</text></g><g><text text-anchor="end" x="102" y="272.05" font-family="Arial" font-size="13" stroke="none" stroke-width="0" fill="#444444">0.2</text></g><g><text text-anchor="end" x="102" y="224.05" font-family="Arial" font-size="13" stroke="none" stroke-width="0" fill="#444444">0.4</text></g><g><text text-anchor="end" x="102" y="176.05" font-family="Arial" font-size="13" stroke="none" stroke-width="0" fill="#444444">0.6</text></g><g><text text-anchor="end" x="102" y="128.05" font-family="Arial" font-size="13" stroke="none" stroke-width="0" fill="#444444">0.8</text></g><g><text text-anchor="end" x="102" y="80.05" font-family="Arial" font-size="13" stroke="none" stroke-width="0" fill="#444444">1</text></g></g></g><g><g><text text-anchor="middle" x="300.5" y="386.05" font-family="Arial" font-size="13" font-style="italic" stroke="none" stroke-width="0" fill="#222222">Models</text><rect x="115" y="375" width="371" height="13" stroke="none" stroke-width="0" fill-opacity="0" fill="#ffffff"></rect></g><g><text text-anchor="middle" x="46.55" y="195.5" font-family="Arial" font-size="13" font-style="italic" transform="rotate(-90 46.55 195.5)" stroke="none" stroke-width="0" fill="#222222">accuracy</text><path d="M35.49999999999999,316L35.50000000000001,75L48.50000000000001,75L48.49999999999999,316Z" stroke="none" stroke-width="0" fill-opacity="0" fill="#ffffff"></path></g></g><g></g></svg>